<?xml version="1.0" encoding="UTF-8"?>
<svg version="1.1" xmlns="http://www.w3.org/2000/svg" width="32" height="32">
<path d="M0 0 C10.56 0 21.12 0 32 0 C32 10.56 32 21.12 32 32 C21.44 32 10.88 32 0 32 C0 21.44 0 10.88 0 0 Z " fill="#182E55" transform="translate(0,0)"/>
<path d="M0 0 C7.92 0 15.84 0 24 0 C24 8.91 24 17.82 24 27 C23.67 26.01 23.34 25.02 23 24 C22.34 24 21.68 24 21 24 C20.360625 23.195625 19.72125 22.39125 19.0625 21.5625 C17.18964068 18.76279268 17.18964068 18.76279268 14 18 C14 18.66 14 19.32 14 20 C13.34 20.33 12.68 20.66 12 21 C11.566875 22.485 11.566875 22.485 11.125 24 C10.75375 24.99 10.3825 25.98 10 27 C7.875 27.875 7.875 27.875 6 28 C5.67 26.68 5.34 25.36 5 24 C5.99 24 6.98 24 8 24 C8 22.35 8 20.7 8 19 C7.34 19 6.68 19 6 19 C5.9254644 20.2236068 5.9254644 20.2236068 7 22 C5.68 21.34 4.36 20.68 3 20 C2.87136294 13.43950995 2.87136294 13.43950995 3.75 10.4375 C4.12932184 6.73911204 2.12800146 4.90182017 0 2 C0 1.34 0 0.68 0 0 Z " fill="#2867BE" transform="translate(8,0)"/>
<path d="M0 0 C1.32 0.33 2.64 0.66 4 1 C4 1.66 4 2.32 4 3 C4.99 3.33 5.98 3.66 7 4 C7 4.66 7 5.32 7 6 C7.66 6 8.32 6 9 6 C9.33 8.64 9.66 11.28 10 14 C8.04233719 14.08082094 6.08373272 14.13910778 4.125 14.1875 C2.48917969 14.23970703 2.48917969 14.23970703 0.8203125 14.29296875 C-0.11039063 14.19628906 -1.04109375 14.09960938 -2 14 C-4 11 -4 11 -4 8 C-3.36893571 5.98848259 -2.70626239 3.98636298 -2 2 C-1.34 2 -0.68 2 0 2 C0 1.34 0 0.68 0 0 Z " fill="#1D3C72" transform="translate(22,18)"/>
<path d="M0 0 C3.32682499 1.66341249 4.92706512 4.07086642 7.125 7.0625 C7.125 7.7225 7.125 8.3825 7.125 9.0625 C7.785 9.0625 8.445 9.0625 9.125 9.0625 C9.125 12.3625 9.125 15.6625 9.125 19.0625 C8.795 18.0725 8.465 17.0825 8.125 16.0625 C7.465 16.0625 6.805 16.0625 6.125 16.0625 C5.485625 15.258125 4.84625 14.45375 4.1875 13.625 C2.31464068 10.82529268 2.31464068 10.82529268 -0.875 10.0625 C-1.205 10.7225 -1.535 11.3825 -1.875 12.0625 C-2.16375 11.423125 -2.4525 10.78375 -2.75 10.125 C-3.70323451 7.91043921 -3.70323451 7.91043921 -5.875 7.0625 C-5.46816505 4.70285727 -4.97685661 3.20315912 -3.5625 1.25 C-1.875 0.0625 -1.875 0.0625 0 0 Z " fill="#2452A0" transform="translate(22.875,7.9375)"/>
<path d="M0 0 C2.97 0 5.94 0 9 0 C9 5.61 9 11.22 9 17 C7 17 7 17 5.2734375 15.3125 C-0.48101928 8.30295593 -0.48101928 8.30295593 -0.4375 3.4375 C-0.293125 2.303125 -0.14875 1.16875 0 0 Z " fill="#2B65D0" transform="translate(23,0)"/>
<path d="M0 0 C0.66 0 1.32 0 2 0 C3.14947895 3.55293493 3.0868937 4.79976669 1.5625 8.3125 C0.7890625 9.6428125 0.7890625 9.6428125 0 11 C1.32 11.66 2.64 12.32 4 13 C3.71758359 14.46015291 3.42373386 15.91809793 3.125 17.375 C2.96257813 18.18710937 2.80015625 18.99921875 2.6328125 19.8359375 C2 22 2 22 0 24 C-0.99 24 -1.98 24 -3 24 C-3.33 22.68 -3.66 21.36 -4 20 C-3.01 20 -2.02 20 -1 20 C-1 18.35 -1 16.7 -1 15 C-1.66 15 -2.32 15 -3 15 C-3.0745356 16.2236068 -3.0745356 16.2236068 -2 18 C-3.32 17.34 -4.64 16.68 -6 16 C-5.72510809 11.96825194 -5.46508424 10.43105369 -2.4375 7.625 C-1.2309375 6.820625 -1.2309375 6.820625 0 6 C-0.2784375 4.7934375 -0.2784375 4.7934375 -0.5625 3.5625 C-0.706875 2.716875 -0.85125 1.87125 -1 1 C-0.67 0.67 -0.34 0.34 0 0 Z " fill="#1CABE6" transform="translate(17,4)"/>
<path d="M0 0 C1.98 0 3.96 0 6 0 C7.11436226 4.45744906 7.36827609 8.4333765 7 13 C5 15 5 15 3 16 C3.2475 14.80375 3.495 13.6075 3.75 12.375 C4.24020626 8.6886489 4.04527644 8.07886863 2.0625 4.625 C1.381875 3.75875 0.70125 2.8925 0 2 C0 1.34 0 0.68 0 0 Z " fill="#224F97" transform="translate(8,0)"/>
<path d="M0 0 C1.65 0 3.3 0 5 0 C5.05399736 1.45792884 5.09279177 2.91642712 5.125 4.375 C5.14820313 5.18710937 5.17140625 5.99921875 5.1953125 6.8359375 C5 9 5 9 3 11 C2.01 11 1.02 11 0 11 C-0.33 9.68 -0.66 8.36 -1 7 C-0.01 7 0.98 7 2 7 C2 5.35 2 3.7 2 2 C1.34 2 0.68 2 0 2 C0 1.34 0 0.68 0 0 Z " fill="#2488BB" transform="translate(14,17)"/>
<path d="M0 0 C0 0.99 0 1.98 0 3 C0.66 3.66 1.32 4.32 2 5 C2.125 8.625 2.125 8.625 2 12 C1.67 11.34 1.34 10.68 1 10 C0.34 9.67 -0.32 9.34 -1 9 C-1.75 5.5625 -1.75 5.5625 -2 2 C-1.34 1.34 -0.68 0.68 0 0 Z " fill="#1F5888" transform="translate(15,14)"/>
</svg>
